<?xml version="1.0" encoding="UTF-8" standalone="no"?>
<svg
   xmlns:dc="http://purl.org/dc/elements/1.1/"
   xmlns:cc="http://creativecommons.org/ns#"
   xmlns:rdf="http://www.w3.org/1999/02/22-rdf-syntax-ns#"
   xmlns:svg="http://www.w3.org/2000/svg"
   xmlns="http://www.w3.org/2000/svg"
   xmlns:sodipodi="http://sodipodi.sourceforge.net/DTD/sodipodi-0.dtd"
   xmlns:inkscape="http://www.inkscape.org/namespaces/inkscape"
   width="15.10386mm"
   height="15.00039mm"
   viewBox="0 0 15.10386 15.00039"
   version="1.1"
   id="svg8"
   inkscape:version="1.0.2-2 (e86c870879, 2021-01-15)"
   sodipodi:docname="engrenage.svg">
  <defs
     id="defs2" />
  <sodipodi:namedview
     id="base"
     pagecolor="#ffffff"
     bordercolor="#666666"
     borderopacity="1.0"
     inkscape:pageopacity="0.0"
     inkscape:pageshadow="2"
     inkscape:zoom="7.9195959"
     inkscape:cx="19.029301"
     inkscape:cy="41.629029"
     inkscape:document-units="mm"
     inkscape:current-layer="layer1"
     inkscape:document-rotation="0"
     showgrid="false"
     inkscape:window-width="1920"
     inkscape:window-height="1017"
     inkscape:window-x="1272"
     inkscape:window-y="61"
     inkscape:window-maximized="1" />
  <metadata
     id="metadata5">
    <rdf:RDF>
      <cc:Work
         rdf:about="">
        <dc:format>image/svg+xml</dc:format>
        <dc:type
           rdf:resource="http://purl.org/dc/dcmitype/StillImage" />
        <dc:title></dc:title>
      </cc:Work>
    </rdf:RDF>
  </metadata>
  <g
     inkscape:label="Calque 1"
     inkscape:groupmode="layer"
     id="layer1"
     transform="translate(-68.332851,-113.19212)">
    <path
       d="m 70.659058,115.1633 0.05378,-0.051 0.05421,-0.0505 0.05477,-0.0499 0.05527,-0.0495 0.0557,-0.0489 0.0562,-0.0483 0.05669,-0.0478 0.05712,-0.0472 m 0,0 0.192742,0.0553 0.187909,0.0699 0.182014,0.0841 0.175051,0.0978 0.167096,0.1109 0.158072,0.1234 0.148196,0.13505 0.137398,0.14607 0.125818,0.15615 0.113457,0.16532 0.100527,0.17349 0.08696,0.18066 m 0,0 0.133775,-0.0895 0.136476,-0.0855 0.138961,-0.0813 0.141447,-0.077 0.143651,-0.0726 0.145852,-0.0683 0.147842,-0.0637 0.149688,-0.0592 m 0,0 -0.09932,-0.1742 -0.08568,-0.18123 -0.07154,-0.18734 -0.05705,-0.19225 -0.04213,-0.196 -0.027,-0.19871 -0.01172,-0.2002 0.0036,-0.20049 0.01897,-0.19963 0.03417,-0.19757 0.04923,-0.19438 0.06394,-0.19004 m 0,0 0.07126,-0.0202 0.07154,-0.0195 0.07168,-0.0188 0.0719,-0.0181 0.07204,-0.0174 0.07225,-0.0167 0.0724,-0.0159 0.07253,-0.0153 m 0,0 0.14493,0.13853 0.133916,0.14926 0.122054,0.15907 0.109548,0.16795 0.09641,0.17583 0.08262,0.18272 0.06841,0.18848 0.05385,0.19317 0.03879,0.19672 0.02373,0.19914 0.0083,0.20034 -0.007,0.20034 m 0,0 0.160132,-0.0171 0.160487,-0.0122 0.160843,-0.007 0.160986,-0.002 0.160983,0.002 0.160843,0.007 0.160559,0.0122 0.160062,0.0171 m 0,0 -0.007,-0.20034 0.0083,-0.20034 0.02373,-0.19914 0.03886,-0.19672 0.05378,-0.19317 0.06841,-0.18848 0.08262,-0.18272 0.09641,-0.17583 0.10955,-0.16795 0.122053,-0.15907 0.133918,-0.14926 0.145,-0.13853 m 0,0 0.07246,0.0153 0.07239,0.0159 0.07225,0.0167 0.07204,0.0174 0.0719,0.0181 0.07168,0.0188 0.07154,0.0195 0.07126,0.0202 m 0,0 0.06394,0.19004 0.04923,0.19438 0.03417,0.19757 0.01897,0.19963 0.0036,0.20049 -0.01172,0.2002 -0.027,0.19871 -0.04213,0.196 -0.05705,0.19225 -0.07154,0.18734 -0.08568,0.18123 -0.09932,0.1742 m 0,0 0.149689,0.0592 0.147841,0.0637 0.145854,0.0683 0.143649,0.0726 0.141448,0.077 0.138963,0.0813 0.136473,0.0855 0.133775,0.0895 m 0,0 0.08696,-0.18066 0.100526,-0.17349 0.113458,-0.16532 0.125818,-0.15615 0.137398,-0.14607 0.148198,-0.13505 0.158072,-0.1234 0.167094,-0.1109 0.17505,-0.0978 0.182015,-0.0841 0.187911,-0.0699 0.19274,-0.0553 m 0,0 0.05712,0.0472 0.05669,0.0478 0.0562,0.0483 0.0557,0.0489 0.05527,0.0495 0.05477,0.0499 0.05421,0.0505 0.05378,0.051 m 0,0 -0.03168,0.198 -0.04675,0.19501 -0.0616,0.19083 -0.07595,0.18556 -0.08994,0.17917 -0.103439,0.17186 -0.116228,0.16333 -0.128447,0.15402 -0.139812,0.14372 -0.150472,0.13264 -0.160062,0.1207 -0.16894,0.10806 m 0,0 0.105074,0.12198 0.101237,0.12518 0.09747,0.12823 0.09342,0.13108 0.08944,0.13385 0.08532,0.13654 0.08113,0.13911 0.0768,0.14144 m 0,0 0.160984,-0.11956 0.169581,-0.10692 0.177326,-0.0936 0.184002,-0.0798 0.189545,-0.0654 0.193948,-0.0508 0.19736,-0.0357 0.19942,-0.0206 0.200485,-0.005 0.200272,0.0101 0.19885,0.0254 0.196365,0.0406 m 0,0 0.0287,0.0683 0.02792,0.0686 0.02735,0.0689 0.02664,0.0692 0.02593,0.0694 0.02522,0.0697 0.02458,0.0699 0.02387,0.0702 m 0,0 -0.120065,0.16056 -0.131998,0.15097 -0.143224,0.14038 -0.153525,0.12901 -0.162903,0.11687 -0.171428,0.10401 -0.178816,0.0906 -0.185283,0.0767 -0.19061,0.0622 -0.194802,0.0475 -0.197926,0.0325 -0.199776,0.0172 m 0,0 0.0363,0.15687 0.03154,0.15793 0.02671,0.15871 0.02181,0.15956 0.01698,0.16006 0.01208,0.16056 0.0072,0.16084 0.0023,0.16099 m 0,0 0.198141,-0.031 0.199845,-0.0158 0.200556,-4.1e-4 0.199988,0.0148 0.198211,0.0301 0.195371,0.0452 0.19132,0.06 0.186135,0.0745 0.179954,0.0885 0.172636,0.10202 0.164323,0.11494 0.155017,0.12717 m 0,0 -0.0064,0.0739 -0.0072,0.0737 -0.0078,0.0737 -0.0086,0.0736 -0.0093,0.0735 -0.01001,0.0735 -0.01073,0.0733 -0.01144,0.0733 m 0,0 -0.180949,0.0864 -0.187057,0.0722 -0.192032,0.0578 -0.195867,0.0429 -0.198566,0.0278 -0.200131,0.0125 -0.200556,-0.003 -0.199632,-0.0182 -0.197716,-0.0335 -0.194587,-0.0484 -0.190327,-0.0632 -0.184854,-0.0776 m 0,0 -0.04078,0.1558 -0.04547,0.15445 -0.05016,0.15296 -0.05477,0.15139 -0.05939,0.14969 -0.06394,0.14777 -0.06834,0.14571 -0.07282,0.14365 m 0,0 0.1899,0.0645 0.184357,0.0789 0.177751,0.0928 0.170151,0.10607 0.161552,0.11878 0.151961,0.13079 0.141521,0.14209 0.130222,0.15246 0.118216,0.16198 0.105429,0.17058 0.09207,0.17817 0.07815,0.18465 m 0,0 -0.04,0.0624 -0.04056,0.062 -0.0412,0.0616 -0.04177,0.0612 -0.04241,0.0608 -0.04305,0.0603 -0.04355,0.06 -0.04419,0.0595 m 0,0 -0.200343,-0.008 -0.199206,-0.023 -0.196863,-0.0381 -0.19338,-0.0531 -0.188763,-0.0677 -0.183007,-0.0819 -0.176188,-0.0957 -0.168373,-0.10891 -0.159564,-0.12156 -0.149761,-0.13327 -0.139104,-0.14444 -0.127665,-0.15466 m 0,0 -0.108483,0.119 -0.112036,0.11566 -0.115517,0.11211 -0.118857,0.10862 -0.122123,0.10493 -0.12525,0.1011 -0.128304,0.0973 -0.131147,0.0933 m 0,0 0.138109,0.14542 0.1266,0.15552 0.114309,0.16468 0.101379,0.17306 0.08781,0.18024 0.07374,0.18649 0.05932,0.19153 0.04447,0.19551 0.02934,0.19836 0.01408,0.20006 -0.0012,0.20048 -0.01661,0.19985 m 0,0 -0.06444,0.0367 -0.06472,0.0361 -0.06515,0.0354 -0.06543,0.0348 -0.06579,0.0342 -0.06614,0.0335 -0.0665,0.0328 -0.06678,0.0322 m 0,0 -0.173842,-0.0999 -0.165747,-0.11282 -0.15665,-0.12525 -0.146563,-0.13683 -0.135622,-0.1477 -0.123971,-0.15758 -0.111539,-0.16666 -0.09847,-0.1747 -0.08483,-0.18166 -0.07062,-0.18769 -0.05605,-0.19253 -0.04121,-0.19623 m 0,0 -0.151324,0.0549 -0.152957,0.0504 -0.154378,0.0456 -0.155726,0.0409 -0.156866,0.0361 -0.157928,0.0314 -0.158856,0.0265 -0.159491,0.0217 m 0,0 0.0547,0.19288 0.03986,0.19658 0.02465,0.199 0.0094,0.20027 -0.006,0.20041 -0.02131,0.19942 -0.03652,0.19715 -0.05151,0.1938 -0.06621,0.18926 -0.08042,0.18365 -0.09435,0.17697 -0.107559,0.16923 m 0,0 -0.07403,0.003 -0.0741,0.002 -0.07417,0.001 -0.0741,4.1e-4 -0.0741,-4.1e-4 -0.07417,-0.001 -0.07403,-0.002 -0.0741,-0.003 m 0,0 -0.107559,-0.16923 -0.09435,-0.17697 -0.08042,-0.18365 -0.06621,-0.18926 -0.05151,-0.1938 -0.03652,-0.19715 -0.02131,-0.19942 -0.006,-0.20041 0.0094,-0.20027 0.02465,-0.199 0.03986,-0.19658 0.0547,-0.19288 m 0,0 -0.159494,-0.0217 -0.158853,-0.0265 -0.157929,-0.0314 -0.156865,-0.0361 -0.155726,-0.0409 -0.154378,-0.0456 -0.152957,-0.0504 -0.151324,-0.0549 m 0,0 -0.0412,0.19623 -0.05605,0.19253 -0.07062,0.18769 -0.08483,0.18166 -0.09847,0.1747 -0.111539,0.16666 -0.123971,0.15758 -0.135622,0.1477 -0.146563,0.13683 -0.156652,0.12525 -0.165743,0.11282 -0.173844,0.0999 m 0,0 -0.06678,-0.0322 -0.0665,-0.0328 -0.06607,-0.0335 -0.06586,-0.0342 -0.06543,-0.0348 -0.06515,-0.0354 -0.06472,-0.0361 -0.06444,-0.0367 m 0,0 -0.01663,-0.19985 -0.0012,-0.20048 0.01408,-0.20006 0.02934,-0.19836 0.04447,-0.19551 0.05932,-0.19153 0.07374,-0.18649 0.08781,-0.18024 0.101379,-0.17306 0.114309,-0.16468 0.1266,-0.15552 0.138109,-0.14542 m 0,0 -0.131145,-0.0933 -0.128306,-0.0973 -0.12525,-0.1011 -0.122123,-0.10493 -0.118857,-0.10862 -0.115517,-0.11211 -0.112036,-0.11566 -0.108483,-0.119 m 0,0 -0.127665,0.15466 -0.139104,0.14444 -0.149761,0.13327 -0.159562,0.12156 -0.168375,0.10891 -0.176188,0.0957 -0.183007,0.0819 -0.188763,0.0677 -0.19331,0.0531 -0.196933,0.0381 -0.199207,0.023 -0.200342,0.008 m 0,0 -0.04419,-0.0595 -0.04355,-0.06 -0.04305,-0.0603 -0.04234,-0.0608 -0.04185,-0.0612 -0.0412,-0.0616 -0.04057,-0.062 -0.04,-0.0624 m 0,0 0.07815,-0.18465 0.09207,-0.17817 0.105428,-0.17058 0.118217,-0.16198 0.130222,-0.15246 0.141518,-0.14209 0.151964,-0.13079 0.161552,-0.11878 0.170149,-0.10607 0.177751,-0.0928 0.184359,-0.0789 0.1899,-0.0645 m 0,0 -0.07282,-0.14365 -0.06834,-0.14571 -0.06394,-0.14777 -0.05939,-0.14969 -0.05478,-0.15139 -0.05016,-0.15296 -0.04547,-0.15445 -0.04078,-0.1558 m 0,0 -0.184856,0.0776 -0.190326,0.0632 -0.194588,0.0484 -0.197715,0.0335 -0.199631,0.0182 -0.200556,0.003 -0.200131,-0.0125 -0.198566,-0.0278 -0.195867,-0.0429 -0.192032,-0.0578 -0.187058,-0.0722 -0.180948,-0.0864 m 0,0 -0.01144,-0.0733 -0.01073,-0.0733 -0.01002,-0.0735 -0.0093,-0.0735 -0.0086,-0.0736 -0.0078,-0.0737 -0.0072,-0.0737 -0.0064,-0.0739 m 0,0 0.155017,-0.12717 0.164324,-0.11494 0.172635,-0.10202 0.179954,-0.0885 0.186135,-0.0745 0.19132,-0.06 0.195371,-0.0452 0.198282,-0.0301 0.199917,-0.0148 0.200556,4.1e-4 0.199845,0.0158 0.198141,0.031 m 0,0 0.0023,-0.16099 0.0072,-0.16084 0.01208,-0.16056 0.01698,-0.16006 0.02188,-0.15956 0.02664,-0.15871 0.03154,-0.15793 0.0363,-0.15687 m 0,0 -0.199774,-0.0172 -0.197928,-0.0325 -0.1948,-0.0475 -0.190612,-0.0622 -0.185281,-0.0767 -0.178816,-0.0906 -0.171428,-0.10401 -0.162905,-0.11687 -0.153525,-0.12901 -0.143224,-0.14038 -0.131998,-0.15097 -0.120063,-0.16056 m 0,0 0.02387,-0.0702 0.02458,-0.0699 0.02522,-0.0697 0.026,-0.0694 0.02657,-0.0692 0.02735,-0.0689 0.02792,-0.0686 0.0287,-0.0683 m 0,0 0.196363,-0.0406 0.198852,-0.0254 0.200272,-0.0101 0.200485,0.005 0.199491,0.0206 0.197287,0.0357 0.19395,0.0508 0.189544,0.0654 0.184003,0.0798 0.177326,0.0936 0.169579,0.10692 0.160986,0.11956 m 0,0 0.07687,-0.14144 0.08106,-0.13911 0.08532,-0.13654 0.08944,-0.13385 0.09349,-0.13108 0.0974,-0.12823 0.101237,-0.12518 0.105074,-0.12198 m 0,0 -0.16887,-0.10806 -0.160132,-0.1207 -0.150472,-0.13264 -0.139812,-0.14372 -0.128449,-0.15402 -0.116226,-0.16333 -0.103368,-0.17186 -0.09001,-0.17917 -0.07595,-0.18556 -0.0616,-0.19083 -0.04675,-0.19501 -0.03169,-0.198 m 4.218924,5.45174 0.0073,0.12142 0.02195,0.11956 0.03616,0.11609 0.04987,0.1109 0.06294,0.10401 0.07495,0.0958 0.08596,0.086 0.09577,0.075 0.104009,0.0629 0.1109,0.0499 0.116085,0.0362 0.119638,0.0219 0.121342,0.007 0.121341,-0.007 0.119638,-0.0219 0.116086,-0.0362 0.1109,-0.0499 0.104006,-0.0629 0.09577,-0.075 0.08596,-0.086 0.07495,-0.0958 0.06294,-0.10401 0.04987,-0.1109 0.03616,-0.11609 0.02195,-0.11956 0.0073,-0.12142 -0.0073,-0.12134 -0.02195,-0.11963 -0.03616,-0.11609 -0.04987,-0.1109 -0.06294,-0.10401 -0.07495,-0.0957 -0.08596,-0.086 -0.09577,-0.075 -0.104006,-0.0629 -0.1109,-0.0499 -0.116086,-0.0362 -0.119638,-0.022 -0.121341,-0.007 -0.121342,0.007 -0.119638,0.022 -0.116085,0.0362 -0.1109,0.0499 -0.104009,0.0629 -0.09577,0.075 -0.08596,0.086 -0.07495,0.0957 -0.06294,0.10401 -0.04987,0.1109 -0.03616,0.11609 -0.02195,0.11963 -0.0073,0.12134"
       style="fill:none;stroke:#fa0000;stroke-width:0.1;stroke-linecap:round;stroke-linejoin:round;stroke-miterlimit:10;stroke-dasharray:none;stroke-opacity:1"
       id="path845" />
  </g>
</svg>
