<?xml version="1.0" encoding="UTF-8" standalone="no"?>
<svg
   xmlns:dc="http://purl.org/dc/elements/1.1/"
   xmlns:cc="http://creativecommons.org/ns#"
   xmlns:rdf="http://www.w3.org/1999/02/22-rdf-syntax-ns#"
   xmlns:svg="http://www.w3.org/2000/svg"
   xmlns="http://www.w3.org/2000/svg"
   xmlns:sodipodi="http://sodipodi.sourceforge.net/DTD/sodipodi-0.dtd"
   xmlns:inkscape="http://www.inkscape.org/namespaces/inkscape"
   width="230mm"
   height="230.05614mm"
   viewBox="0 0 230 230.05614"
   version="1.1"
   id="svg8"
   inkscape:version="1.0.2-2 (e86c870879, 2021-01-15)"
   sodipodi:docname="plateau tournant.svg">
  <defs
     id="defs2" />
  <sodipodi:namedview
     id="base"
     pagecolor="#ffffff"
     bordercolor="#666666"
     borderopacity="1.0"
     inkscape:pageopacity="0.0"
     inkscape:pageshadow="2"
     inkscape:zoom="0.7"
     inkscape:cx="422.05313"
     inkscape:cy="508.03785"
     inkscape:document-units="mm"
     inkscape:current-layer="layer1"
     inkscape:document-rotation="0"
     showgrid="false"
     inkscape:window-width="1920"
     inkscape:window-height="1017"
     inkscape:window-x="1272"
     inkscape:window-y="61"
     inkscape:window-maximized="1" />
  <metadata
     id="metadata5">
    <rdf:RDF>
      <cc:Work
         rdf:about="">
        <dc:format>image/svg+xml</dc:format>
        <dc:type
           rdf:resource="http://purl.org/dc/dcmitype/StillImage" />
        <dc:title></dc:title>
      </cc:Work>
    </rdf:RDF>
  </metadata>
  <g
     inkscape:label="Calque 1"
     inkscape:groupmode="layer"
     id="layer1"
     transform="translate(-81.957977,-125.0415)">
    <path
       d="m 132.34049,232.60848 2.56547,-0.11043 2.54617,-0.32979 2.50931,-0.54924 2.45315,-0.76154 2.37775,-0.97041 2.28468,-1.17042 2.17594,-1.36347 2.05129,-1.54417 1.91098,-1.71619 1.75652,-1.87232 1.58984,-2.01801 1.40908,-2.14784 1.21956,-2.25837 1.02124,-2.35665 0.81422,-2.43565 0.60193,-2.49702 0.38599,-2.53916 0.16514,-2.56194 -0.0562,-2.56726 -0.27556,-2.55318 -0.49294,-2.51986 -0.70892,-2.46897 -0.91947,-2.397 -1.12133,-2.31104 -1.31606,-2.20574 -1.50035,-2.08292 -1.67405,-1.94778 -1.83547,-1.79687 -1.98289,-1.63023 -2.11452,-1.45643 -2.23379,-1.26697 -2.33387,-1.07213 -2.41809,-0.86684 -2.48121,-0.65629 -2.5304,-0.43872 -2.55846,-0.22085 h -2.569 l -2.55845,0.22085 -2.53036,0.43872 -2.48125,0.65629 -2.41809,0.86684 -2.33382,1.07213 -2.23385,1.26697 -2.11451,1.45643 -1.98285,1.63023 -1.83551,1.79687 -1.67405,1.94778 -1.50031,2.08292 -1.31611,2.20574 -1.12127,2.31104 -0.91952,2.397 -0.70892,2.46897 -0.49294,2.51986 -0.27557,2.55318 -0.0562,2.56726 0.16514,2.56194 0.38599,2.53916 0.60187,2.49702 0.81422,2.43565 1.0213,2.35665 1.21956,2.25837 1.40908,2.14784 1.58979,2.01801 1.75657,1.87232 1.91092,1.71619 2.05134,1.54417 2.1759,1.36347 2.28473,1.17042 2.37769,0.97041 2.45321,0.76154 2.50931,0.54924 2.54617,0.32979 2.56547,0.11043 m 64.61598,111.91932 2.56547,-0.11042 2.54617,-0.33178 2.50931,-0.54751 2.45315,-0.76333 2.37775,-0.96862 2.28468,-1.17047 2.17768,-1.36341 2.0496,-1.54597 1.91092,-1.71439 1.75653,-1.87411 1.58984,-2.01797 1.40907,-2.1461 1.21957,-2.26015 1.02124,-2.35666 0.81422,-2.43564 0.60192,-2.49529 0.386,-2.53915 0.16514,-2.56194 -0.0542,-2.569 -0.27706,-2.55145 -0.49294,-2.52159 -0.70891,-2.46719 -0.91953,-2.39878 -1.12127,-2.3093 -1.31611,-2.20574 -1.50031,-2.08467 -1.67405,-1.94604 -1.83546,-1.79686 -1.9829,-1.63197 -2.11451,-1.45469 -2.23384,-1.26871 -2.33383,-1.07039 -2.41634,-0.86685 -2.483,-0.65629 -2.53035,-0.44071 -2.55846,-0.21936 h -2.569 l -2.55846,0.21936 -2.52861,0.44071 -2.483,0.65629 -2.41808,0.86685 -2.33383,1.07039 -2.2321,1.26871 -2.11625,1.45469 -1.9829,1.63197 -1.83546,1.79686 -1.67406,1.94604 -1.50035,2.08467 -1.31608,2.20574 -1.12133,2.3093 -0.91773,2.39878 -0.71065,2.46719 -0.49294,2.52159 -0.27557,2.55145 -0.0562,2.569 0.16663,2.56194 0.38401,2.53915 0.60192,2.49529 0.81596,2.43564 1.0195,2.35666 1.21957,2.26015 1.41089,2.1461 1.58805,2.01797 1.75652,1.87411 1.91097,1.71439 2.05129,1.54597 2.17595,1.36341 2.28646,1.17047 2.3777,0.96862 2.45141,0.76333 2.50931,0.54751 2.54618,0.33178 2.56551,0.11042 m 64.61591,-111.91932 2.56547,-0.11043 2.54797,-0.32979 2.50757,-0.54924 2.45315,-0.76154 2.3777,-0.97041 2.28472,-1.17042 2.17769,-1.36347 2.05129,-1.54417 1.91097,-1.71619 1.75478,-1.87232 1.58979,-2.01801 1.40908,-2.14784 1.21957,-2.25837 1.02129,-2.35665 0.81422,-2.43565 0.60187,-2.49702 0.386,-2.53916 0.16514,-2.56194 -0.0542,-2.56726 -0.27557,-2.55318 -0.49493,-2.51986 -0.70896,-2.46897 -0.91948,-2.397 -1.12132,-2.31104 -1.31432,-2.20574 -1.5021,-2.08292 -1.67405,-1.94778 -1.83372,-1.79687 -1.9829,-1.63023 -2.11625,-1.45643 -2.23379,-1.26697 -2.33388,-1.07213 -2.41629,-0.86684 -2.483,-0.65629 -2.5304,-0.43872 -2.55846,-0.22085 h -2.56721 l -2.55846,0.22085 -2.5304,0.43872 -2.483,0.65629 -2.41808,0.86684 -2.33383,1.07213 -2.23205,1.26697 -2.11625,1.45643 -1.9829,1.63023 -1.83551,1.79687 -1.67406,1.94778 -1.5003,2.08292 -1.31611,2.20574 -1.12128,2.31104 -0.91773,2.397 -0.70896,2.46897 -0.49493,2.51986 -0.27557,2.55318 -0.0562,2.56726 0.16664,2.56194 0.3845,2.53916 0.60187,2.49702 0.81596,2.43565 1.01955,2.35665 1.22131,2.25837 1.40908,2.14784 1.5881,2.01801 1.75652,1.87232 1.91092,1.71619 2.05134,1.54417 2.17589,1.36347 2.28647,1.17042 2.37775,0.97041 2.45141,0.76154 2.50931,0.54924 2.54617,0.32979 2.56547,0.11043 m -64.61591,-37.30641 2.56547,-0.11043 2.54617,-0.32978 2.50932,-0.54925 2.45315,-0.76159 2.37775,-0.97036 2.28467,-1.17047 2.17769,-1.36342 2.0496,-1.54422 1.91092,-1.71613 1.75652,-1.87238 1.58984,-2.01796 1.40908,-2.1461 1.21957,-2.26016 1.02124,-2.35665 0.81422,-2.43565 0.60192,-2.49702 0.386,-2.53737 0.16514,-2.56373 -0.0542,-2.56726 -0.27706,-2.55318 -0.49294,-2.51986 -0.70892,-2.46718 -0.91952,-2.39878 -1.12127,-2.31105 -1.31611,-2.20399 -1.50031,-2.08467 -1.67405,-1.94778 -1.83546,-1.79512 -1.9829,-1.63193 -2.11451,-1.45648 -2.23385,-1.26696 -2.33382,-1.07213 -2.41635,-0.8669 -2.48299,-0.6545 -2.53036,-0.44021 -2.55845,-0.22085 h -2.569 l -2.55846,0.22085 -2.52861,0.44021 -2.483,0.6545 -2.41809,0.8669 -2.33382,1.07213 -2.2321,1.26696 -2.11626,1.45648 -1.98289,1.63193 -1.83547,1.79512 -1.67405,1.94778 -1.50035,2.08467 -1.31608,2.20399 -1.12133,2.31105 -0.91773,2.39878 -0.71066,2.46718 -0.49294,2.51986 -0.27556,2.55318 -0.0562,2.56726 0.16663,2.56373 0.38401,2.53737 0.60192,2.49702 0.81596,2.43565 1.0195,2.35665 1.21957,2.26016 1.41088,2.1461 1.58805,2.01796 1.75653,1.87238 1.91097,1.71613 2.05129,1.54422 2.17594,1.36342 2.28647,1.17047 2.3777,0.97036 2.45141,0.76159 2.50931,0.54925 2.54617,0.32978 2.56552,0.11043 m 0,159.17349 5.06076,-0.11241 5.05021,-0.33526 5.03096,-0.55974 5.00106,-0.78089 4.96252,-1.00021 4.91158,-1.21956 4.85547,-1.43718 4.78523,-1.64774 4.70809,-1.86004 4.62029,-2.06537 4.52554,-2.26891 4.42028,-2.46544 4.30797,-2.65848 4.18515,-2.848 4.05523,-3.02872 3.91665,-3.20599 3.77101,-3.37621 3.61835,-3.53936 3.45868,-3.69555 3.29194,-3.84467 3.1182,-3.98862 2.93928,-4.1202 2.75324,-4.24653 2.56368,-4.36587 2.3672,-4.47291 2.16714,-4.57468 1.9636,-4.66595 1.75478,-4.74843 1.54243,-4.82035 1.32835,-4.88527 1.11078,-4.93794 0.89142,-4.98177 0.66858,-5.01867 0.44767,-5.04146 0.22483,-5.05722 v -5.06075 l -0.22483,-5.05728 -0.44767,-5.04145 -0.66858,-5.01867 -0.89142,-4.98177 -1.11078,-4.93794 -1.32835,-4.88527 -1.54243,-4.82035 -1.75478,-4.74843 -1.9636,-4.66591 -2.16714,-4.57468 -2.3672,-4.4729 -2.56368,-4.36587 -2.75324,-4.24659 -2.93928,-4.12193 -3.1182,-3.98683 -3.29194,-3.84473 -3.45868,-3.69554 -3.61835,-3.53936 -3.77101,-3.37621 -3.91665,-3.20594 -4.05523,-3.02877 -4.18515,-2.84795 -4.30797,-2.65848 -4.42028,-2.46724 -4.52554,-2.26717 -4.62029,-2.06536 -4.70809,-1.86004 -4.78523,-1.64774 -4.85547,-1.43713 -4.91158,-1.21956 -4.96252,-1.00026 -5.00106,-0.78084 -5.03096,-0.55979 -5.05021,-0.33526 -5.06076,-0.11241 -5.0608,0.11241 -5.05021,0.33526 -5.03091,0.55979 -5.00112,0.78084 -4.96251,1.00026 -4.9116,1.21956 -4.85368,1.43713 -4.78529,1.64774 -4.70803,1.86004 -4.62209,2.06536 -4.52553,2.26717 -4.42029,2.46724 -4.30622,2.65848 -4.18511,2.84795 -4.05527,3.02877 -3.9184,3.20594 -3.771,3.37621 -3.61835,3.53936 -3.45868,3.69554 -3.29194,3.84473 -3.1182,3.98683 -2.93928,4.12193 -2.753195,4.24659 -2.563729,4.36587 -2.3672,4.4729 -2.16714,4.57468 -1.963597,4.66591 -1.752992,4.74843 -1.544226,4.82035 -1.328348,4.88527 -1.110779,4.93794 -0.889677,4.98177 -0.670317,5.01867 -0.447674,5.04145 -0.224334,5.05728 v 5.06075 l 0.224334,5.05722 0.447674,5.04146 0.670317,5.01867 0.889677,4.98177 1.110779,4.93794 1.328348,4.88527 1.544226,4.82035 1.752992,4.74843 1.963597,4.66595 2.16714,4.57468 2.3672,4.47291 2.563729,4.36587 2.753195,4.24653 2.93928,4.1202 3.1182,3.98862 3.29194,3.84467 3.45868,3.69555 3.61835,3.53936 3.771,3.37621 3.9184,3.20599 4.05527,3.02872 4.18511,2.848 4.30622,2.65848 4.42029,2.46544 4.52553,2.26891 4.62209,2.06537 4.70803,1.86004 4.78529,1.64774 4.85368,1.43718 4.9116,1.21956 4.96251,1.00021 5.00112,0.78089 5.03091,0.55974 5.05021,0.33526 5.0608,0.11241 m 0,-111.91927 0.73349,-0.11043 0.66858,-0.32083 0.54218,-0.50363 0.37008,-0.64227 0.16663,-0.72294 -0.0562,-0.73876 -0.27009,-0.69141 -0.4631,-0.57904 -0.61241,-0.41783 -0.70897,-0.21936 h -0.7418 l -0.70891,0.21936 -0.61242,0.41783 -0.4616,0.57904 -0.27209,0.69141 -0.0542,0.73876 0.16514,0.72294 0.37008,0.64227 0.54398,0.50363 0.66683,0.32083 0.73349,0.11043 m 64.61591,64.66505 2.56552,-0.11042 2.54791,-0.33178 2.50757,-0.5475 2.45315,-0.76155 2.37775,-0.97041 2.28468,-1.17041 2.17768,-1.36347 2.05135,-1.54418 1.91092,-1.71618 1.75478,-1.87406 1.58979,-2.01802 1.40913,-2.14609 1.21956,-2.26016 1.02124,-2.35661 0.81422,-2.4339 0.60193,-2.49703 0.38599,-2.53915 0.16514,-2.56199 -0.0542,-2.56721 -0.27556,-2.55318 -0.49493,-2.51986 -0.70892,-2.46897 -0.91952,-2.39879 -1.12128,-2.30925 -1.31432,-2.20574 -1.50209,-2.08293 -1.67405,-1.94778 -1.83373,-1.79691 -1.98289,-1.63192 -2.11626,-1.45469 -2.23384,-1.26871 -2.33382,-1.07044 -2.41635,-0.86684 -2.483,-0.65629 -2.5304,-0.44022 -2.55846,-0.21936 h -2.56721 l -2.55845,0.21936 -2.53036,0.44022 -2.48304,0.65629 -2.41804,0.86684 -2.33387,1.07044 -2.23206,1.26871 -2.11625,1.45469 -1.9829,1.63192 -1.83551,1.79691 -1.67405,1.94778 -1.50031,2.08293 -1.31606,2.20574 -1.12132,2.30925 -0.91773,2.39879 -0.70892,2.46897 -0.49493,2.51986 -0.27557,2.55318 -0.0562,2.56721 0.16663,2.56199 0.3845,2.53915 0.60188,2.49703 0.81601,2.4339 1.0195,2.35661 1.2213,2.26016 1.40913,2.14609 1.58805,2.01802 1.75652,1.87406 1.91092,1.71618 2.05134,1.54418 2.17595,1.36347 2.28642,1.17041 2.37774,0.97041 2.45142,0.76155 2.50931,0.5475 2.54617,0.33178 2.56547,0.11042 m -129.23189,0 2.56547,-0.11042 2.54617,-0.33178 2.50936,-0.5475 2.45315,-0.76155 2.3777,-0.97041 2.28473,-1.17041 2.17594,-1.36347 2.05129,-1.54418 1.91098,-1.71618 1.75652,-1.87406 1.58979,-2.01802 1.40913,-2.14609 1.21951,-2.26016 1.02129,-2.35661 0.81422,-2.4339 0.60188,-2.49703 0.38599,-2.53915 0.16514,-2.56199 -0.0562,-2.56721 -0.27556,-2.55318 -0.49294,-2.51986 -0.70892,-2.46897 -0.91952,-2.39879 -1.12128,-2.30925 -1.31606,-2.20574 -1.50035,-2.08293 -1.67405,-1.94778 -1.83552,-1.79691 -1.98284,-1.63192 -2.11452,-1.45469 -2.23384,-1.26871 -2.33382,-1.07044 -2.41809,-0.86684 -2.48126,-0.65629 -2.53035,-0.44022 -2.55846,-0.21936 h -2.569 l -2.55845,0.21936 -2.53041,0.44022 -2.4812,0.65629 -2.41809,0.86684 -2.33387,1.07044 -2.2338,1.26871 -2.11451,1.45469 -1.9829,1.63192 -1.83546,1.79691 -1.67405,1.94778 -1.50036,2.08293 -1.31606,2.20574 -1.12132,2.30925 -0.91947,2.39879 -0.70892,2.46897 -0.49294,2.51986 -0.27557,2.55318 -0.0562,2.56721 0.16514,2.56199 0.38599,2.53915 0.60187,2.49703 0.81422,2.4339 1.02125,2.35661 1.21956,2.26016 1.40908,2.14609 1.58984,2.01802 1.75652,1.87406 1.91097,1.71618 2.05129,1.54418 2.17595,1.36347 2.28473,1.17041 2.37769,0.97041 2.45316,0.76155 2.50931,0.5475 2.54622,0.33178 2.56547,0.11042"
       style="fill:none;stroke:#ff0000;stroke-width:0.1;stroke-linecap:round;stroke-linejoin:round;stroke-miterlimit:10;stroke-dasharray:none;stroke-opacity:1"
       id="path845" />
  </g>
</svg>
