<?xml version="1.0" encoding="UTF-8" standalone="no"?>
<svg
   xmlns:dc="http://purl.org/dc/elements/1.1/"
   xmlns:cc="http://creativecommons.org/ns#"
   xmlns:rdf="http://www.w3.org/1999/02/22-rdf-syntax-ns#"
   xmlns:svg="http://www.w3.org/2000/svg"
   xmlns="http://www.w3.org/2000/svg"
   xmlns:sodipodi="http://sodipodi.sourceforge.net/DTD/sodipodi-0.dtd"
   xmlns:inkscape="http://www.inkscape.org/namespaces/inkscape"
   width="56.739952mm"
   height="44.080002mm"
   viewBox="0 0 56.739952 44.080002"
   version="1.1"
   id="svg8"
   inkscape:version="1.0.2-2 (e86c870879, 2021-01-15)"
   sodipodi:docname="crochet.svg">
  <defs
     id="defs2" />
  <sodipodi:namedview
     id="base"
     pagecolor="#ffffff"
     bordercolor="#666666"
     borderopacity="1.0"
     inkscape:pageopacity="0.0"
     inkscape:pageshadow="2"
     inkscape:zoom="2.8"
     inkscape:cx="96.110766"
     inkscape:cy="128.66821"
     inkscape:document-units="mm"
     inkscape:current-layer="layer1"
     inkscape:document-rotation="0"
     showgrid="false"
     inkscape:window-width="1920"
     inkscape:window-height="1017"
     inkscape:window-x="1272"
     inkscape:window-y="61"
     inkscape:window-maximized="1" />
  <metadata
     id="metadata5">
    <rdf:RDF>
      <cc:Work
         rdf:about="">
        <dc:format>image/svg+xml</dc:format>
        <dc:type
           rdf:resource="http://purl.org/dc/dcmitype/StillImage" />
        <dc:title></dc:title>
      </cc:Work>
    </rdf:RDF>
  </metadata>
  <g
     inkscape:label="Calque 1"
     inkscape:groupmode="layer"
     id="layer1"
     transform="translate(-75.198713,-125.26806)">
    <path
       d="m 130.68519,129.13899 0.22342,0.0118 0.22031,-0.036 0.20589,-0.0815 0.1801,-0.12261 0.14541,-0.15763 0.10276,-0.18439 0.0543,-0.20095 0.004,-0.20731 -0.0477,-0.20255 -0.0959,-0.18725 -0.13988,-0.1621 -0.17598,-0.128 -0.20279,-0.0876 m -50.971473,39.58138 0.354717,-0.0242 0.347146,-0.0717 0.332034,-0.11752 0.310366,-0.16145 0.281166,-0.20126 0.246783,-0.23725 0.206914,-0.26782 0.162582,-0.29298 0.115145,-0.3121 0.0643,-0.32387 0.01305,-0.32928 -0.03888,-0.32737 -0.09002,-0.31878 -0.138858,-0.30317 -0.185265,-0.2812 -0.227539,-0.25349 -0.264653,-0.21974 -0.296628,-0.18183 -0.322057,-0.13981 -0.340629,-0.0949 -0.351618,-0.0481 h -0.355871 l -0.351619,0.0481 -0.340619,0.0949 -0.322058,0.13981 -0.296628,0.18183 -0.26466,0.21974 -0.22754,0.25349 -0.185256,0.2812 -0.139208,0.30317 -0.08973,0.31878 -0.03917,0.32737 0.01305,0.32928 0.0646,0.32387 0.114793,0.3121 0.162582,0.29298 0.206915,0.26782 0.246792,0.23725 0.281498,0.20126 0.310024,0.16145 0.332376,0.11752 0.347156,0.0717 0.354366,0.0242 m 50.971464,-39.58138 -1.41921,-0.41176 -1.43397,-0.36527 -1.4467,-0.31846 -1.45803,-0.27165 -1.46732,-0.22387 -1.47488,-0.17611 -1.48037,-0.12834 -1.4845,-0.0799 -1.48692,-0.0322 -1.4869,0.0165 -1.48554,0.0646 -1.48209,0.11274 -1.47693,0.16081 -1.46974,0.2086 -1.46146,0.25635 -1.45048,0.30349 -1.4381,0.35031 -1.42401,0.3968 -1.4082,0.44266 -1.39067,0.48819 -1.37143,0.53309 -1.350094,0.57705 -1.32777,0.62068 -1.303363,0.66366 -1.277586,0.70505 -1.250086,0.74648 -1.220877,0.78627 -1.190625,0.82544 -1.158658,0.86366 -1.125329,0.90091 -1.090599,0.93658 -1.054514,0.97162 -1.01705,1.00505 -0.978557,1.03754 -0.938688,1.06873 -0.897777,1.09836 -0.855511,1.12703 -0.812534,1.15376 -0.768544,1.17989 -0.723181,1.20377 -0.677456,1.2267 -0.630377,1.24771 -0.58328,1.26747 -0.534477,1.2856 -0.486013,1.30218 -0.436169,1.31714 -0.386343,1.33052 -0.335805,1.34228 -0.284596,1.3525 -0.233386,1.36076 -0.181816,1.36747 -0.130274,1.37254 -0.07804,1.37574 -0.02611,1.37765 m 9.743271,0 0.02542,-1.31045 0.07697,-1.30855 0.1282,-1.30535 0.179419,-1.29995 0.229947,-1.29326 0.280474,-1.28465 0.33065,-1.27447 0.380497,-1.26237 0.429641,-1.24867 0.478103,-1.23338 0.526225,-1.21683 0.573662,-1.19803 0.619718,-1.17798 0.666115,-1.15631 0.71047,-1.1334 0.754797,-1.10854 0.79741,-1.08244 0.839348,-1.05505 0.880257,-1.02607 0.919438,-0.99581 0.958271,-0.96428 0.995402,-0.93118 1.031137,-0.89741 1.065515,-0.86206 1.098508,-0.82544 1.13047,-0.7882 1.16039,-0.74965 1.1889,-0.71014 1.21607,-0.66941 1.2415,-0.62831 1.26521,-0.58629 1.28721,-0.54328 1.30783,-0.49966 1.32639,-0.45507 1.34358,-0.41049 1.3587,-0.36495 1.37212,-0.31911 1.38344,-0.2726 1.39342,-0.22578 1.40132,-0.17898 1.40751,-0.13184 1.41165,-0.0844 1.41403,-0.0367 1.41474,0.0108 1.41299,0.0583 1.40993,0.10573 1.40509,0.15317 1.39789,0.20032 m -55.369282,35.57838 0.0268,0.47196 0.0797,0.46654 0.131991,0.45635 0.182506,0.44106 0.231671,0.421 0.277718,0.39616 0.321025,0.36719 0.360562,0.33405 0.3963,0.29713 0.427585,0.2573 0.454388,0.21465 0.476037,0.16941 0.492553,0.12229 0.503532,0.0739 0.509047,0.0246 0.509388,-0.0246 0.503532,-0.0739 0.492552,-0.12229 0.476036,-0.16941 0.454389,-0.21465 0.427585,-0.2573 0.396301,-0.29713 0.360562,-0.33405 0.321025,-0.36719 0.277717,-0.39616 0.231329,-0.421 0.18285,-0.44106 0.131989,-0.45635 0.07969,-0.46654 0.02679,-0.47196"
       style="fill:none;stroke:#ff0000;stroke-width:0.1;stroke-linecap:round;stroke-linejoin:round;stroke-miterlimit:10;stroke-dasharray:none;stroke-opacity:1"
       id="path845" />
  </g>
</svg>
