<?xml version="1.0" encoding="UTF-8" standalone="no"?>
<svg
   xmlns:dc="http://purl.org/dc/elements/1.1/"
   xmlns:cc="http://creativecommons.org/ns#"
   xmlns:rdf="http://www.w3.org/1999/02/22-rdf-syntax-ns#"
   xmlns:svg="http://www.w3.org/2000/svg"
   xmlns="http://www.w3.org/2000/svg"
   xmlns:sodipodi="http://sodipodi.sourceforge.net/DTD/sodipodi-0.dtd"
   xmlns:inkscape="http://www.inkscape.org/namespaces/inkscape"
   width="300mm"
   height="230.29105mm"
   viewBox="0 0 300 230.29105"
   version="1.1"
   id="svg8"
   inkscape:version="1.0.2-2 (e86c870879, 2021-01-15)"
   sodipodi:docname="plaque fond.svg">
  <defs
     id="defs2">
    <clipPath
       clipPathUnits="userSpaceOnUse"
       id="clipPath925">
      <path
         id="path927"
         style="fill:#ff0000;fill-opacity:1;fill-rule:nonzero;stroke:none;stroke-width:0.264583"
         d="M 14.909253,-30.178661 V 198.96704 H 313.76389 V -30.178661 Z M 150.15526,47.829498 h 5.3e-4 c 0.0599,-0.0019 0.10943,0.02037 0.14211,0.0801 0.53003,0.969061 0.94508,2.036411 1.1312,3.130042 0.55155,0.641041 0.53657,0.682813 0.093,0.751375 2.6e-4,0.0058 0.001,0.01172 0.002,0.01757 0.0225,0.351134 -0.61048,0.362961 -0.94671,0.466638 -0.59813,0.184433 -1.21298,0.30721 -1.82573,0.4377 -0.0408,0.01733 -0.0434,0.01841 -0.0879,0.03721 -0.53103,0.270174 -0.73316,0.369929 -0.97979,0.492992 0.0321,0.119888 0.0649,0.234482 0.0946,0.366903 0.0877,0.391258 -0.47343,1.160971 -1.20354,1.967323 0.82203,0.497536 1.21847,0.965523 1.31671,1.42317 0.65205,0.187222 1.19728,0.644202 1.79679,0.963763 -0.1626,1.118796 0.0388,2.35598 -0.48782,3.356385 -0.33319,0.632963 -1.22283,0.742731 -1.85054,1.085723 -0.43462,0.23749 -0.89422,0.426961 -1.33428,0.654222 -0.2055,0.10613 -0.37565,0.295955 -0.60152,0.345716 -0.16708,0.03681 0.27559,-0.202486 0.41342,-0.303856 1.24007,-0.912167 0.62717,-1.139142 -0.41858,-1.221631 -0.69237,0.784214 -1.30462,1.67318 -2.29237,2.106332 -0.54316,0.08366 -1.08307,0.191211 -1.62936,0.251145 -0.0675,0.0074 -0.131,-0.03652 -0.1974,-0.05064 -0.12304,-0.02617 -0.25508,-0.02032 -0.37052,-0.07028 -0.0268,-0.01156 0.0389,-0.04348 0.0584,-0.06511 l 0.42788,-0.439767 c -0.24528,0.162156 -0.43676,0.393367 -0.65525,0.590146 -0.38968,0.203165 -0.73257,0.599728 -1.16427,0.629419 0.0304,0.086 0.0604,0.172107 0.0915,0.257866 0.0337,0.240046 0.0113,0.494771 0.10129,0.719852 0.0762,0.190444 0.26626,0.313243 0.38034,0.48369 0.1757,0.262525 0.36835,0.520229 0.48731,0.812871 1.79239,4.409226 -0.089,0.08087 0.91053,3.360518 0.0954,0.31286 0.28718,0.58783 0.43099,0.8816 0.42834,0.66172 0.29451,0.518081 0.93172,1.167371 0.13402,0.136541 0.3273,0.222977 0.4222,0.389122 0.34665,0.60715 0.66139,1.238851 0.88522,1.901175 0.13499,0.399481 0.0822,0.84202 0.18035,1.252119 0.10753,0.44958 0.2893,0.878242 0.43408,1.317233 0.14358,0.391211 0.31133,0.774399 0.43098,1.173573 0.65099,2.171687 0.31221,1.255546 0.68523,2.993615 0.2808,1.30837 0.64547,2.5992 0.94671,3.90312 0.38542,1.787681 0.7076,3.602749 0.46302,5.42861 -0.005,0.08231 -0.009,0.123301 -0.0129,0.165364 0.007,0.07277 0.0118,0.09234 0.0212,0.273886 0.2066,3.997698 -3.83874,4.203711 -4.03851,0.205672 -0.02,-0.39891 -0.0716,-0.803553 0.0243,-1.197859 0.1926,-1.331312 -0.15229,-2.660555 -0.39791,-3.968234 -0.31432,-1.36942 -0.69242,-2.722769 -0.9865,-4.096909 -0.28013,-1.309 -0.009,-0.678238 -0.50488,-2.323888 -0.14216,-0.471861 -0.33521,-0.926664 -0.50281,-1.390097 -0.19482,-0.687925 -0.42082,-1.367965 -0.58446,-2.063957 -0.0286,-0.123849 -0.0213,-0.258111 0.0103,-0.38137 0.0254,-0.09947 0.20655,-0.176517 0.15555,-0.265618 -0.16101,-0.281001 -0.47933,-0.437354 -0.69608,-0.677995 -1.05128,-1.167125 -0.88152,-1.005768 -1.58957,-2.227768 -0.23108,-0.59106 -0.50363,-1.167458 -0.6935,-1.773018 -0.4437,-1.415049 0.26124,-0.3625 -0.40359,-1.984893 -0.15592,-0.38049 -0.44539,-0.693489 -0.62477,-1.063501 -0.80468,-1.659853 -0.78261,-1.192257 -0.78238,-2.009179 0.36648,0.152511 0.0961,0.07274 -0.20619,-0.484209 -0.12169,-0.224232 -0.23991,-0.453303 -0.35605,-0.684194 -0.0616,-0.06454 -0.10565,-0.157501 -0.13694,-0.28112 -0.49371,-1.017116 -0.91716,-2.089325 -1.17461,-3.190505 -0.0537,0.0021 -0.10164,-0.0105 -0.13746,-0.05374 -0.78793,-0.951293 -1.2998,-2.100818 -1.94975,-3.15123 0.30036,-0.291449 0.54895,-0.647893 0.90124,-0.873847 0.28957,-0.185735 0.60081,-0.302979 0.92397,-0.377237 V 52.34603 c 0,-2.001517 1.01066,-3.001883 2.02158,-3.001883 1.01092,0 2.0221,1.000366 2.0221,3.001883 v 0.374137 c 0.90946,-0.28829 1.80763,-0.610897 2.68304,-1.011825 3.77747,-1.730034 0.70481,-0.974125 5.55574,-2.61121 0.46836,-0.15806 0.97737,-0.148961 1.46606,-0.223242 0.0436,-0.0076 0.0875,-0.01394 0.13125,-0.02119 0.6721,-0.2952 0.92174,-0.399105 1.99988,-0.735872 0.19541,-0.06103 0.46974,-0.281519 0.65009,-0.287319 z m 45.37707,2.320272 c 0.0896,-1.51e-4 0.1475,0.02228 0.1633,0.07338 0.19723,0.637871 0.29874,1.303562 0.33952,1.976107 0.17426,-0.04263 0.34928,-0.07482 0.52709,-0.06615 2.09572,0.102275 3.09597,0.908786 1.45108,3.984255 -0.33746,0.630941 -1.08022,0.866581 -1.79627,1.128096 -0.13171,0.08163 -0.26367,0.162848 -0.39533,0.24443 -0.21328,0.132162 -1.23457,0.746323 -1.39423,0.93431 -0.0966,0.113781 -0.13122,0.264279 -0.1695,0.412376 0.006,0.09867 0.008,0.19771 0.002,0.296106 0.0785,0.0063 0.15712,0.0089 0.23564,0.01707 0.21517,0.233349 0.63474,0.38299 0.64544,0.700217 0.0106,0.315688 -0.32929,0.526505 -0.53588,0.77928 -0.0235,0.04431 -0.0475,0.08781 -0.0894,0.170016 -0.0152,0.0298 0.0133,-0.06781 0.032,-0.0956 0.0171,-0.02551 0.0373,-0.04985 0.0574,-0.07441 0.0998,-0.187949 0.0515,-0.139745 -0.0884,-0.589629 -0.19668,-0.632833 -0.31857,-0.168818 -0.44855,0.364836 0.095,0.05256 0.19218,0.103635 0.27182,0.166915 -0.1022,-0.01199 -0.20438,-0.02154 -0.30696,-0.02946 -0.1383,0.56383 -0.29381,1.111023 -0.56276,0.471805 -0.0697,-0.16569 -0.18392,-0.320728 -0.2222,-0.494024 -0.2396,0.0041 -0.47871,0.02215 -0.71727,0.04599 -2.7e-4,0.0054 -8e-4,0.0091 -0.001,0.01447 0.44679,0.81257 0.42434,1.322178 0.50436,1.429888 0.15395,-0.108559 0.30867,-0.216469 0.45992,-0.327113 -0.30994,0.302168 -0.40773,0.397365 -0.45992,0.327113 -0.63891,0.450519 -1.30406,0.870058 -2.03657,1.144116 0.0656,0.357714 -0.20645,0.556591 -1.07538,0.455785 -0.16519,-0.01916 -0.3304,-0.03819 -0.49558,-0.05736 -0.12393,0.02458 -0.24748,0.05031 -0.37104,0.07648 0.20348,0.01159 -0.008,0.04157 -0.17932,0.05994 -1.19002,1.143971 -2.47066,1.811885 -3.1812,0.377756 -1.14884,-2.318774 -0.35921,-3.106967 0.7245,-3.67988 -0.0515,-0.127786 -0.10957,-0.289896 -0.16588,-0.449067 -0.045,-2.3e-4 -0.0905,-0.0033 -0.13487,-5.29e-4 -2.19208,-0.973701 -2.95278,-0.587973 -1.44074,-3.923276 0.20958,-0.462296 0.85196,-0.556297 1.30845,-0.778248 1.78666,-0.868704 3.79666,-1.392614 5.3852,-2.61121 0.21085,-0.485236 0.58915,-0.933911 1.19579,-1.277956 0.15936,-0.09038 2.33832,-1.195777 2.96519,-1.196827 z m -6.65644,13.539223 c 0.008,-0.0077 0.0158,-0.01548 0.0238,-0.02326 -0.0255,0.01103 -0.0388,0.01704 -0.0615,0.02687 0.0144,-0.0013 0.0201,-0.0019 0.0377,-0.0036 z m 0.0238,-0.02326 c 0.006,-0.0024 0.008,-0.0034 0.0129,-0.0057 -0.003,7.94e-4 -0.006,0.0013 -0.009,0.0021 -0.001,0.0013 -0.002,0.0026 -0.004,0.0036 z m 0.15555,-0.03669 c -0.02,-0.0011 -0.0309,-0.0031 -0.061,-0.0036 -0.0398,0.01704 -0.0462,0.01974 -0.0806,0.03462 0.0472,-0.01048 0.0943,-0.02101 0.14159,-0.03101 z M 150.14027,101.1172 c 0.15373,-0.006 0.14844,0.31561 0.36019,0.99529 0.67977,0.69151 1.16096,1.6424 1.71565,2.44429 0.0724,0.10465 -0.20294,0.15368 -0.30437,0.23048 -0.016,0.0114 -0.0325,0.0222 -0.0486,0.0336 0.16297,0.17188 0.64215,-0.42162 0.0579,0.39119 -1.11657,1.55322 -1.24907,1.61665 -2.42259,2.82515 -0.0238,0.0155 -0.0479,0.0305 -0.0718,0.046 0.32969,0.36218 0.58334,0.75056 0.59325,1.22215 0.033,1.5734 -2.23724,1.92763 -3.60444,2.08618 -0.33352,0.23406 -0.6789,0.49626 -1.05574,0.67747 -0.0178,0.86667 -0.14699,1.74432 -0.15658,2.61018 -0.19906,0.0406 -0.41621,0.0295 -0.59738,0.12144 -0.58402,0.29626 -1.1107,0.69385 -1.67277,1.02991 -1.51935,0.90841 -3.19489,2.04555 -4.98316,2.35955 -0.0659,0.0116 -0.13242,0.018 -0.19895,0.0243 -0.27695,0.4318 -0.64288,1.00497 -1.08056,1.83141 -0.72394,1.36699 -0.70974,0.52053 -0.51676,-0.81029 -0.0588,0.006 -0.11765,0.002 -0.1757,-0.0274 -0.24016,-0.122 -0.47153,-0.26198 -0.69608,-0.41444 -0.19166,0.68161 -0.20956,0.39644 -1.18494,-0.53279 -0.26394,-0.27382 -0.445,-0.46409 -0.64441,-0.67282 -0.45848,0.28177 -0.96255,0.70372 -1.25625,0.36638 -1.0568,-1.21383 -1.61632,-2.02046 -1.81694,-2.59777 -0.10241,0.0571 -0.20532,0.11373 -0.30696,0.17208 -0.0409,0.0235 -0.10342,0.1413 -0.10542,0.094 -0.0233,-0.62272 -0.0598,-1.14508 -0.0997,-1.59732 -0.53424,-0.3918 -1.22964,-0.94344 -2.2412,-1.70015 -0.17167,-0.12841 0.3476,-0.25256 0.53329,-0.35967 0.62733,-0.36188 1.27387,-0.68633 1.9296,-0.99219 0.17034,-0.11064 0.42609,-0.24082 0.72864,-0.3917 -0.001,-0.0594 -3e-5,-0.11882 0.007,-0.17829 0.37801,-2.96984 1.2521,-1.45863 2.24896,-1.90169 0.32343,-0.14375 0.62296,-0.33656 0.93431,-0.50488 0.38706,0.21717 0.76426,0.45577 1.14102,0.69557 0.45933,-0.18238 0.91965,-0.36219 1.38234,-0.53589 -0.0148,-0.0107 -0.0305,-0.0242 -0.045,-0.0336 -1.7e-4,0.0416 -0.0165,0.0647 -0.0687,0.0517 -0.0825,-0.0206 -0.13497,-0.0772 -0.17363,-0.15038 -0.29787,-0.0546 -0.63424,0.10899 -1.38182,0.19224 -0.11188,0.0125 0.21383,-0.0697 0.32091,-0.10439 0.29356,-0.23965 0.58752,-0.47916 0.88108,-0.71882 0.0828,0.18299 0.0886,0.45813 0.17983,0.63097 0.0812,0.0149 0.15944,0.0452 0.24237,0.0987 5.2e-4,-0.13883 -0.20576,-0.5088 -0.092,-0.6475 0.62846,-0.76617 1.41414,-1.39955 2.21899,-1.97766 0.12001,-0.0863 0.29687,0.0256 0.43821,0.0687 0.0513,0.0156 0.1089,0.0264 0.16692,0.0367 0.15656,-0.1367 0.30457,-0.29637 0.48834,-0.25683 1.46315,0.31496 2.21095,0.38757 2.61948,0.51521 2.31832,-1.15139 4.56388,-2.4976 6.67194,-3.97133 0.15734,-0.32787 0.33866,-0.57177 0.60203,-0.4439 0.006,0.003 0.0109,0.006 0.0165,0.009 0.27553,-0.2119 0.43399,-0.33474 0.52348,-0.33796 z m 50.16903,2.73316 c 0.0433,-0.002 0.0721,0.0168 0.0775,0.0708 0.0516,0.51462 0.10117,1.04208 0.12092,1.5689 2.53591,2.10356 2.07543,2.15793 0.79685,2.35541 -0.43266,0.17773 -0.86203,0.36265 -1.29036,0.55035 -0.0489,0.0338 -0.10894,0.0555 -0.17105,0.0749 -1.42499,0.62902 -2.8302,1.30389 -4.23333,1.98283 -0.13326,0.15963 -0.25868,0.32608 -0.38034,0.49558 -0.01,0.047 -0.0166,0.0858 -0.0258,0.13177 0.84827,-0.15813 1.6942,-0.33116 2.53731,-0.5178 0.31692,-0.15438 0.63555,-0.30499 0.95912,-0.44493 1.27533,-0.55158 3.86087,-1.28453 5.06687,-1.54823 2.61142,-0.571 -0.99238,0.62487 1.91823,-0.14417 0.18044,-0.0583 0.36122,-0.11602 0.54053,-0.17777 0.23613,-0.1009 0.46548,-0.22152 0.70177,-0.32194 0.0139,0.0187 0.0289,0.0367 0.0429,0.0553 0.11267,-0.0415 0.22615,-0.0807 0.33848,-0.12299 0.0578,-0.0217 0.128,-0.17516 0.1447,-0.11576 0.11246,0.4002 0.21251,0.80336 0.30902,1.20768 0.62721,0.73122 1.26199,1.45837 1.65468,2.32751 0.12213,0.27032 -0.51612,0.29753 -0.79271,0.40462 -0.40104,0.15525 -0.80667,0.29853 -1.2144,0.43564 -0.3628,0.21953 -0.74328,0.31737 -1.13172,0.36122 -2.32652,0.7102 -4.67952,1.35253 -7.05383,1.89497 0.0827,0.86858 0.16531,1.73745 0.0481,2.59622 -0.0433,0.31695 -0.5081,0.38867 -0.76068,0.58498 -0.18886,0.14679 -0.38626,0.28393 -0.57102,0.43563 -0.005,0.037 -0.0158,0.0802 -0.0181,0.11318 -0.0483,0.009 -0.1812,0.0614 -0.14521,0.0279 0.0527,-0.0491 0.10763,-0.0954 0.1633,-0.14108 0.10391,-0.70405 0.72391,-2.05844 0.12144,-1.87275 -0.0415,0.0128 -0.0804,0.0298 -0.12041,0.045 0.0351,0.27508 0.0759,0.5474 0.14004,0.80873 -0.5925,-0.31442 -0.56469,-0.28407 -1.02577,-0.22272 -0.24222,0.23608 -0.45974,0.51319 -0.6718,0.79892 0.73331,-0.009 0.98398,0.14197 -0.11058,0.86661 -0.0191,0.0127 -0.0388,0.025 -0.0579,0.0377 -0.32183,0.14342 -0.53646,0.29414 -0.79168,0.33228 0.34285,-0.37459 0.64648,-0.81347 0.96014,-1.2361 -0.25398,0.003 -0.58023,0.0248 -0.91725,0.0496 -0.24573,0.26958 -0.53055,0.47888 -0.88832,0.57464 -0.29433,0.0788 -0.38088,-0.15729 -0.37362,-0.51004 -0.45518,0.007 -0.87671,-0.0175 -1.18236,-0.11576 -0.65035,0.24681 -1.19556,0.36508 -1.34307,0.14366 -0.20816,-0.31249 -0.37892,-0.5786 -0.53588,-0.82889 -0.78724,0.0107 -1.57439,0.0202 -2.36161,0.0388 -1.70861,-0.0415 -3.41522,-0.12772 -5.12062,-0.24339 -0.25814,-0.0175 -0.98254,-0.13346 -1.20665,-0.0837 -0.29177,0.0647 -0.54817,0.23882 -0.82217,0.35812 -2.36725,1.05472 -4.70927,2.18247 -7.13652,3.09645 -0.21934,0.0826 -0.57638,0.36419 -0.68523,0.15658 -0.0151,-0.0288 -0.028,-0.0592 -0.0424,-0.0884 -0.0417,0.0219 -0.0833,0.0448 -0.12506,0.0667 -0.28769,0.0763 -0.80709,0.52128 -0.86299,0.22892 -0.22276,-1.16564 -0.16765,-2.38376 0.015,-3.56464 -0.0655,-0.162 -0.13877,-0.32051 -0.22531,-0.47336 -0.1366,-0.24128 -0.53362,0.15053 -0.80046,0.22583 1.09202,-0.57016 2.18001,-1.15031 3.26853,-1.72909 -0.10435,-0.0145 -0.19244,-0.0613 -0.25425,-0.15813 -0.73961,-1.15862 -1.08626,-2.61328 -1.05006,-3.98736 0.0106,-0.40199 0.77533,-0.21191 1.16323,-0.31781 1.57954,-0.35167 3.16397,-0.6653 4.74752,-0.98288 0.6125,-0.19032 1.25718,-0.38967 2.06499,-0.6258 1.20905,-0.35341 2.42475,-0.68499 3.63698,-1.02733 0.94066,-0.28935 1.89376,-0.52626 2.85358,-0.73432 0.0725,-1.27002 1.58643,-2.16242 3.74912,-1.08107 0.22169,0.11083 0.38838,0.20554 0.52969,0.29042 0.0686,-0.0116 0.13712,-0.0231 0.20567,-0.0346 0.37053,-0.0937 0.70068,-0.17535 0.89297,-0.2253 0.0779,-0.10092 0.15771,-0.20198 0.26871,-0.2589 0.49273,-0.25264 1.018,-0.43859 1.54306,-0.61444 0.32286,-0.10813 0.84257,-0.53994 0.99426,-0.23513 0.0409,0.0823 0.0786,0.16542 0.1142,0.2496 0.35047,-0.12541 0.7016,-0.24935 1.05472,-0.36897 0.49089,-0.16629 1.08827,-0.75134 1.49448,-0.42943 0.0328,0.026 0.0531,0.0432 0.0853,0.0687 0.21012,-0.0896 0.41882,-0.18229 0.62993,-0.26975 0.15608,-0.0465 0.41687,-0.24991 0.54674,-0.25735 z m -61.23089,1.77354 c -0.0631,0.0106 -0.13013,0.007 -0.18913,0.0315 -0.0185,0.008 0.039,0.0125 0.0548,0.0248 0.0248,0.0194 0.0357,0.0813 0.0646,0.0687 0.0501,-0.0219 0.0977,-0.0553 0.14418,-0.092 -0.0238,-0.0102 -0.0549,-0.0267 -0.0744,-0.0331 z m 8.93848,4.89066 c -0.0271,0.004 -0.0955,0.0376 -0.16227,0.0729 0.0581,0.0616 0.10926,0.11295 0.17054,0.17932 0.0321,-0.18909 0.0488,-0.25993 -0.008,-0.25218 z m -2.36161,1.14722 c -0.002,-10e-4 -0.009,-1.4e-4 -0.0217,0.004 -0.0924,0.0286 -0.18265,0.0634 -0.27388,0.0956 2.6e-4,0.027 -1.3e-4,0.0541 0,0.0811 0.004,0.002 0.009,0.005 0.0129,0.007 0.0762,-0.0537 0.29683,-0.17834 0.28267,-0.18759 z m 40.44249,2.88302 c -0.0132,5.3e-4 -0.0279,0.001 -0.0413,0.002 0.0167,0.0243 0.0307,0.0217 0.0413,-0.002 z m 8.64546,4.00854 c 0.002,-7.9e-4 0.009,0.002 0.0217,0.009 0.11701,0.0626 0.22837,0.13468 0.339,0.20825 -0.017,-0.004 -0.0324,-0.004 -0.0501,-0.009 -0.0989,-0.0267 -0.32474,-0.20191 -0.31057,-0.20826 z m 0.36277,0.21756 c 0.11675,0.0255 0.22055,0.0287 0.3173,0.0145 -0.0369,0.0404 -0.0716,0.0845 -0.10956,0.123 -0.0702,-0.0443 -0.13859,-0.0915 -0.20774,-0.13746 z" />
    </clipPath>
  </defs>
  <sodipodi:namedview
     id="base"
     pagecolor="#ffffff"
     bordercolor="#666666"
     borderopacity="1.0"
     inkscape:pageopacity="0.0"
     inkscape:pageshadow="2"
     inkscape:zoom="0.65431416"
     inkscape:cx="643.90871"
     inkscape:cy="457.27913"
     inkscape:document-units="mm"
     inkscape:current-layer="layer1"
     inkscape:document-rotation="0"
     showgrid="false"
     inkscape:window-width="1920"
     inkscape:window-height="1017"
     inkscape:window-x="1272"
     inkscape:window-y="61"
     inkscape:window-maximized="1" />
  <metadata
     id="metadata5">
    <rdf:RDF>
      <cc:Work
         rdf:about="">
        <dc:format>image/svg+xml</dc:format>
        <dc:type
           rdf:resource="http://purl.org/dc/dcmitype/StillImage" />
        <dc:title />
      </cc:Work>
    </rdf:RDF>
  </metadata>
  <g
     inkscape:label="Calque 1"
     inkscape:groupmode="layer"
     id="layer1"
     transform="translate(-14.336678,30.751236)">
    <path
       d="m 24.918458,-30.128536 -1.72849,0.15087 -1.67751,0.44963 -1.57389,0.73424 -1.42107,0.9942 -1.22783,1.22788 -0.99595,1.42282 -0.7325,1.5721 -0.44962,1.67751 -0.15087,1.72849 m 298.753252,0 -0.15087,-1.72849 -0.44813,-1.67751 -0.73424,-1.5721 -0.996,-1.42282 -1.22783,-1.22788 -1.42103,-0.9942 -1.57389,-0.73424 -1.67576,-0.44963 -1.73024,-0.15087 m 0,229.045646 1.73024,-0.15087 1.67576,-0.44962 1.57389,-0.73424 1.42103,-0.996 1.22783,-1.22609 0.996,-1.42282 0.73424,-1.57384 0.44813,-1.67576 0.15087,-1.73024 m -298.753252,0 0.15087,1.73024 0.44962,1.67576 0.7325,1.57384 0.99595,1.42282 1.22783,1.22609 1.42107,0.996 1.57389,0.73424 1.67751,0.44962 1.72849,0.15087 m 14.93783,-137.179016 0.80803,-0.13544 0.7202,-0.38987 0.55504,-0.60249 0.33012,-0.75007 0.0667,-0.8168 -0.20016,-0.79399 -0.44814,-0.68679 -0.6464,-0.50414 -0.77641,-0.2654 h -0.81859 l -0.77636,0.2654 -0.64646,0.50414 -0.44813,0.68679 -0.20216,0.79399 0.0682,0.8168 0.32863,0.75007 0.55508,0.60249 0.72194,0.38987 0.80803,0.13544 m 248.961632,-4.9781 -0.80803,0.13344 -0.7202,0.38988 -0.55509,0.60423 -0.33012,0.75007 -0.0667,0.8168 0.20016,0.79394 0.44814,0.68683 0.64819,0.50241 0.77462,0.26689 h 0.82033 l 0.77463,-0.26689 0.64645,-0.50241 0.44813,-0.68683 0.20216,-0.79394 -0.0687,-0.8168 -0.32863,-0.75007 -0.55509,-0.60423 -0.72199,-0.38988 -0.80798,-0.13344 m -19.91598,0 -0.80977,0.13344 -0.72015,0.38988 -0.55508,0.60423 -0.32863,0.75007 -0.0687,0.8168 0.20216,0.79394 0.44813,0.68683 0.64641,0.50241 0.77462,0.26689 h 0.82033 l 0.77467,-0.26689 0.6464,-0.50241 0.44963,-0.68683 0.20017,-0.79394 -0.0667,-0.8168 -0.33012,-0.75007 -0.55509,-0.60423 -0.72019,-0.38988 -0.80799,-0.13344 m 0,50.290446 -0.80982,0.13344 -0.72015,0.38988 -0.55508,0.60428 -0.32863,0.75007 -0.0687,0.8168 0.20216,0.79394 0.44813,0.68683 0.64641,0.50236 0.77467,0.26689 h 0.82028 l 0.77467,-0.26689 0.6464,-0.50236 0.44963,-0.68683 0.20017,-0.79394 -0.0667,-0.8168 -0.33012,-0.75007 -0.55509,-0.60428 -0.72014,-0.38988 -0.80804,-0.13344 M 59.773548,61.738094 l 0.80803,-0.13544 0.7202,-0.38987 0.55509,-0.60249 0.32863,-0.75007 0.0687,-0.8168 -0.20216,-0.79399 -0.44813,-0.68679 -0.64646,-0.50414 -0.77462,-0.2654 h -0.82033 l -0.77467,0.2654 -0.6464,0.50414 -0.44813,0.68679 -0.20216,0.79399 0.0687,0.8168 0.32863,0.75007 0.55509,0.60249 0.7202,0.38987 0.80977,0.13544 m 0,50.290496 0.80803,-0.13544 0.7202,-0.38987 0.55509,-0.60254 0.32863,-0.75003 0.0687,-0.81679 -0.20216,-0.79573 -0.44813,-0.68505 -0.64646,-0.50415 -0.77462,-0.26539 h -0.82033 l -0.77467,0.26539 -0.6464,0.50415 -0.44813,0.68505 -0.20216,0.79573 0.0687,0.81679 0.32863,0.75003 0.55509,0.60254 0.7202,0.38987 0.80977,0.13544 m -19.91772,0 0.80804,-0.13544 0.72019,-0.38987 0.55509,-0.60254 0.33012,-0.75003 0.0667,-0.81679 -0.20016,-0.79573 -0.44813,-0.68505 -0.64641,-0.50415 -0.77641,-0.26539 h -0.81854 l -0.77641,0.26539 -0.64641,0.50415 -0.44813,0.68505 -0.20216,0.79573 0.0687,0.81679 0.32863,0.75003 0.55503,0.60254 0.72199,0.38987 0.80803,0.13544 m 248.961582,-4.97815 -0.80798,0.13344 -0.7202,0.38988 -0.55509,0.60428 -0.33012,0.75007 -0.0667,0.8168 0.20016,0.79394 0.44814,0.68683 0.64814,0.50236 0.77462,0.26689 h 0.82033 l 0.77468,-0.26689 0.6464,-0.50236 0.44813,-0.68683 0.20216,-0.79394 -0.0687,-0.8168 -0.32863,-0.75007 -0.55509,-0.60428 -0.72194,-0.38988 -0.80803,-0.13344 m -263.899452,79.41787 0.80803,0.13543 0.72194,0.38988 0.55508,0.60249 0.32863,0.75002 0.0687,0.8168 -0.20216,0.79573 -0.44813,0.68509 -0.64641,0.5041 -0.77641,0.26539 h -0.81859 l -0.77636,-0.26539 -0.64646,-0.5041 -0.44813,-0.68509 -0.20016,-0.79573 0.0667,-0.8168 0.32863,-0.75002 0.55508,-0.60249 0.72195,-0.38988 0.80803,-0.13543 m 278.837282,0 0.80803,0.13543 0.72194,0.38988 0.55508,0.60249 0.32863,0.75002 0.0687,0.8168 -0.20216,0.79573 -0.44813,0.68509 -0.64641,0.5041 -0.77641,0.26539 h -0.81859 l -0.77462,-0.26539 -0.6482,-0.5041 -0.44813,-0.68509 -0.20016,-0.79573 0.0667,-0.8168 0.33012,-0.75002 0.55509,-0.60249 0.72019,-0.38988 0.80804,-0.13543 m 0,-209.127926 0.80803,0.13543 0.72194,0.38988 0.55508,0.60248 0.32863,0.75008 0.0687,0.81679 -0.20216,0.79573 -0.44813,0.68505 -0.64641,0.50415 -0.77641,0.26539 h -0.81859 l -0.77462,-0.26539 -0.6482,-0.50415 -0.44813,-0.68505 -0.20016,-0.79573 0.0667,-0.81679 0.33012,-0.75008 0.55509,-0.60248 0.7202,-0.38988 0.80803,-0.13543 m -278.837282,0 0.80798,0.13543 0.72194,0.38988 0.55509,0.60248 0.32863,0.75008 0.0687,0.81679 -0.20216,0.79573 -0.44813,0.68505 -0.6464,0.50415 -0.77642,0.26539 h -0.81853 l -0.77642,-0.26539 -0.6464,-0.50415 -0.44814,-0.68505 -0.20016,-0.79573 0.0667,-0.81679 0.32863,-0.75008 0.55509,-0.60248 0.72199,-0.38988 0.80798,-0.13543 m 166.655992,82.25643 0.76586,-0.13543 0.67449,-0.38838 0.49887,-0.59552 0.26688,-0.73245 v -0.77815 l -0.26688,-0.73076 -0.49887,-0.59546 -0.67449,-0.38988 -0.76586,-0.13543 -0.76765,0.13543 -0.67274,0.38988 -0.50062,0.59546 -0.26689,0.73076 v 0.77815 l 0.26689,0.73245 0.50062,0.59552 0.67274,0.38838 0.76765,0.13543 m -54.27439,54.274386 0.76586,-0.13543 0.67454,-0.38838 0.50061,-0.59721 0.26539,-0.73076 v -0.77815 l -0.26539,-0.73071 -0.50061,-0.59726 -0.67454,-0.38838 -0.76586,-0.13543 -0.76586,0.13543 -0.67453,0.38838 -0.50062,0.59726 -0.26539,0.73071 v 0.77815 l 0.26539,0.73076 0.50062,0.59721 0.67453,0.38838 0.76586,0.13543 m 54.27439,0 0.76586,-0.13543 0.67449,-0.38838 0.49887,-0.59721 0.26688,-0.73076 v -0.77815 l -0.26688,-0.73071 -0.49887,-0.59726 -0.67449,-0.38838 -0.76586,-0.13543 -0.76765,0.13543 -0.67274,0.38838 -0.50062,0.59726 -0.26689,0.73071 v 0.77815 l 0.26689,0.73076 0.50062,0.59721 0.67274,0.38838 0.76765,0.13543 m -54.27439,-54.274386 0.76586,-0.13543 0.67454,-0.38838 0.50061,-0.59552 0.26539,-0.73245 v -0.77815 l -0.26539,-0.73076 -0.50061,-0.59546 -0.67454,-0.38988 -0.76586,-0.13543 -0.76586,0.13543 -0.67453,0.38988 -0.50062,0.59546 -0.26539,0.73076 v 0.77815 l 0.26539,0.73245 0.50062,0.59552 0.67453,0.38838 0.76586,0.13543 m 166.45574,-89.72535 H 24.917368 m 288.795262,89.62701 v -79.66902 m -19.91597,79.66902 h 19.91597 M 293.79666,109.2901 V 59.498474 m 19.91597,49.791626 h -19.91597 m 19.91597,79.66728 V 109.2901 M 24.917368,198.91711 H 303.75465 M 14.959378,109.2901 v 79.66728 M 34.875358,109.2901 H 14.959378 M 34.875358,59.498474 V 109.2901 M 14.959378,59.498474 h 19.91598 m -19.91598,-79.66902 v 79.66902"
       style="fill:none;stroke:#ff0000;stroke-width:0.1;stroke-linecap:round;stroke-linejoin:round;stroke-miterlimit:10;stroke-dasharray:none;stroke-opacity:1"
       id="path1534"
       clip-path="url(#clipPath925)" />
  </g>
</svg>
