<?xml version="1.0" encoding="UTF-8" standalone="no"?>
<svg
   xmlns:dc="http://purl.org/dc/elements/1.1/"
   xmlns:cc="http://creativecommons.org/ns#"
   xmlns:rdf="http://www.w3.org/1999/02/22-rdf-syntax-ns#"
   xmlns:svg="http://www.w3.org/2000/svg"
   xmlns="http://www.w3.org/2000/svg"
   xmlns:sodipodi="http://sodipodi.sourceforge.net/DTD/sodipodi-0.dtd"
   xmlns:inkscape="http://www.inkscape.org/namespaces/inkscape"
   width="300mm"
   height="230.29105mm"
   viewBox="0 0 300 230.29105"
   version="1.1"
   id="svg8"
   inkscape:version="1.0.2-2 (e86c870879, 2021-01-15)"
   sodipodi:docname="dessin.svg">
  <defs
     id="defs2" />
  <sodipodi:namedview
     id="base"
     pagecolor="#ffffff"
     bordercolor="#666666"
     borderopacity="1.0"
     inkscape:pageopacity="0.0"
     inkscape:pageshadow="2"
     inkscape:zoom="0.65431416"
     inkscape:cx="406.8861"
     inkscape:cy="444.14311"
     inkscape:document-units="mm"
     inkscape:current-layer="layer1"
     inkscape:document-rotation="0"
     showgrid="false"
     inkscape:window-width="1920"
     inkscape:window-height="1017"
     inkscape:window-x="1272"
     inkscape:window-y="61"
     inkscape:window-maximized="1" />
  <metadata
     id="metadata5">
    <rdf:RDF>
      <cc:Work
         rdf:about="">
        <dc:format>image/svg+xml</dc:format>
        <dc:type
           rdf:resource="http://purl.org/dc/dcmitype/StillImage" />
        <dc:title></dc:title>
      </cc:Work>
    </rdf:RDF>
  </metadata>
  <g
     inkscape:label="Calque 1"
     inkscape:groupmode="layer"
     id="layer1"
     transform="translate(-14.336678,30.751236)">
    <path
       d="m 24.918458,-30.128536 -1.72849,0.15087 -1.67751,0.44963 -1.57389,0.73424 -1.42107,0.9942 -1.22783,1.22788 -0.99595,1.42282 -0.7325,1.5721 -0.44962,1.67751 -0.15087,1.72849 m 298.753252,0 -0.15087,-1.72849 -0.44813,-1.67751 -0.73424,-1.5721 -0.996,-1.42282 -1.22783,-1.22788 -1.42103,-0.9942 -1.57389,-0.73424 -1.67576,-0.44963 -1.73024,-0.15087 m 0,229.045646 1.73024,-0.15087 1.67576,-0.44962 1.57389,-0.73424 1.42103,-0.996 1.22783,-1.22609 0.996,-1.42282 0.73424,-1.57384 0.44813,-1.67576 0.15087,-1.73024 m -298.753252,0 0.15087,1.73024 0.44962,1.67576 0.7325,1.57384 0.99595,1.42282 1.22783,1.22609 1.42107,0.996 1.57389,0.73424 1.67751,0.44962 1.72849,0.15087 m 14.93783,-137.179016 0.80803,-0.13544 0.7202,-0.38987 0.55504,-0.60249 0.33012,-0.75007 0.0667,-0.8168 -0.20016,-0.79399 -0.44814,-0.68679 -0.6464,-0.50414 -0.77641,-0.2654 h -0.81859 l -0.77636,0.2654 -0.64646,0.50414 -0.44813,0.68679 -0.20216,0.79399 0.0682,0.8168 0.32863,0.75007 0.55508,0.60249 0.72194,0.38987 0.80803,0.13544 m 248.961632,-4.9781 -0.80803,0.13344 -0.7202,0.38988 -0.55509,0.60423 -0.33012,0.75007 -0.0667,0.8168 0.20016,0.79394 0.44814,0.68683 0.64819,0.50241 0.77462,0.26689 h 0.82033 l 0.77463,-0.26689 0.64645,-0.50241 0.44813,-0.68683 0.20216,-0.79394 -0.0687,-0.8168 -0.32863,-0.75007 -0.55509,-0.60423 -0.72199,-0.38988 -0.80798,-0.13344 m -19.91598,0 -0.80977,0.13344 -0.72015,0.38988 -0.55508,0.60423 -0.32863,0.75007 -0.0687,0.8168 0.20216,0.79394 0.44813,0.68683 0.64641,0.50241 0.77462,0.26689 h 0.82033 l 0.77467,-0.26689 0.6464,-0.50241 0.44963,-0.68683 0.20017,-0.79394 -0.0667,-0.8168 -0.33012,-0.75007 -0.55509,-0.60423 -0.72019,-0.38988 -0.80799,-0.13344 m 0,50.290446 -0.80982,0.13344 -0.72015,0.38988 -0.55508,0.60428 -0.32863,0.75007 -0.0687,0.8168 0.20216,0.79394 0.44813,0.68683 0.64641,0.50236 0.77467,0.26689 h 0.82028 l 0.77467,-0.26689 0.6464,-0.50236 0.44963,-0.68683 0.20017,-0.79394 -0.0667,-0.8168 -0.33012,-0.75007 -0.55509,-0.60428 -0.72014,-0.38988 -0.80804,-0.13344 M 59.773548,61.738094 l 0.80803,-0.13544 0.7202,-0.38987 0.55509,-0.60249 0.32863,-0.75007 0.0687,-0.8168 -0.20216,-0.79399 -0.44813,-0.68679 -0.64646,-0.50414 -0.77462,-0.2654 h -0.82033 l -0.77467,0.2654 -0.6464,0.50414 -0.44813,0.68679 -0.20216,0.79399 0.0687,0.8168 0.32863,0.75007 0.55509,0.60249 0.7202,0.38987 0.80977,0.13544 m 0,50.290496 0.80803,-0.13544 0.7202,-0.38987 0.55509,-0.60254 0.32863,-0.75003 0.0687,-0.81679 -0.20216,-0.79573 -0.44813,-0.68505 -0.64646,-0.50415 -0.77462,-0.26539 h -0.82033 l -0.77467,0.26539 -0.6464,0.50415 -0.44813,0.68505 -0.20216,0.79573 0.0687,0.81679 0.32863,0.75003 0.55509,0.60254 0.7202,0.38987 0.80977,0.13544 m -19.91772,0 0.80804,-0.13544 0.72019,-0.38987 0.55509,-0.60254 0.33012,-0.75003 0.0667,-0.81679 -0.20016,-0.79573 -0.44813,-0.68505 -0.64641,-0.50415 -0.77641,-0.26539 h -0.81854 l -0.77641,0.26539 -0.64641,0.50415 -0.44813,0.68505 -0.20216,0.79573 0.0687,0.81679 0.32863,0.75003 0.55503,0.60254 0.72199,0.38987 0.80803,0.13544 m 248.961582,-4.97815 -0.80798,0.13344 -0.7202,0.38988 -0.55509,0.60428 -0.33012,0.75007 -0.0667,0.8168 0.20016,0.79394 0.44814,0.68683 0.64814,0.50236 0.77462,0.26689 h 0.82033 l 0.77468,-0.26689 0.6464,-0.50236 0.44813,-0.68683 0.20216,-0.79394 -0.0687,-0.8168 -0.32863,-0.75007 -0.55509,-0.60428 -0.72194,-0.38988 -0.80803,-0.13344 m -263.899452,79.41787 0.80803,0.13543 0.72194,0.38988 0.55508,0.60249 0.32863,0.75002 0.0687,0.8168 -0.20216,0.79573 -0.44813,0.68509 -0.64641,0.5041 -0.77641,0.26539 h -0.81859 l -0.77636,-0.26539 -0.64646,-0.5041 -0.44813,-0.68509 -0.20016,-0.79573 0.0667,-0.8168 0.32863,-0.75002 0.55508,-0.60249 0.72195,-0.38988 0.80803,-0.13543 m 278.837282,0 0.80803,0.13543 0.72194,0.38988 0.55508,0.60249 0.32863,0.75002 0.0687,0.8168 -0.20216,0.79573 -0.44813,0.68509 -0.64641,0.5041 -0.77641,0.26539 h -0.81859 l -0.77462,-0.26539 -0.6482,-0.5041 -0.44813,-0.68509 -0.20016,-0.79573 0.0667,-0.8168 0.33012,-0.75002 0.55509,-0.60249 0.72019,-0.38988 0.80804,-0.13543 m 0,-209.127926 0.80803,0.13543 0.72194,0.38988 0.55508,0.60248 0.32863,0.75008 0.0687,0.81679 -0.20216,0.79573 -0.44813,0.68505 -0.64641,0.50415 -0.77641,0.26539 h -0.81859 l -0.77462,-0.26539 -0.6482,-0.50415 -0.44813,-0.68505 -0.20016,-0.79573 0.0667,-0.81679 0.33012,-0.75008 0.55509,-0.60248 0.7202,-0.38988 0.80803,-0.13543 m -278.837282,0 0.80798,0.13543 0.72194,0.38988 0.55509,0.60248 0.32863,0.75008 0.0687,0.81679 -0.20216,0.79573 -0.44813,0.68505 -0.6464,0.50415 -0.77642,0.26539 h -0.81853 l -0.77642,-0.26539 -0.6464,-0.50415 -0.44814,-0.68505 -0.20016,-0.79573 0.0667,-0.81679 0.32863,-0.75008 0.55509,-0.60248 0.72199,-0.38988 0.80798,-0.13543 m 166.655992,82.25643 0.76586,-0.13543 0.67449,-0.38838 0.49887,-0.59552 0.26688,-0.73245 v -0.77815 l -0.26688,-0.73076 -0.49887,-0.59546 -0.67449,-0.38988 -0.76586,-0.13543 -0.76765,0.13543 -0.67274,0.38988 -0.50062,0.59546 -0.26689,0.73076 v 0.77815 l 0.26689,0.73245 0.50062,0.59552 0.67274,0.38838 0.76765,0.13543 m -54.27439,54.274386 0.76586,-0.13543 0.67454,-0.38838 0.50061,-0.59721 0.26539,-0.73076 v -0.77815 l -0.26539,-0.73071 -0.50061,-0.59726 -0.67454,-0.38838 -0.76586,-0.13543 -0.76586,0.13543 -0.67453,0.38838 -0.50062,0.59726 -0.26539,0.73071 v 0.77815 l 0.26539,0.73076 0.50062,0.59721 0.67453,0.38838 0.76586,0.13543 m 54.27439,0 0.76586,-0.13543 0.67449,-0.38838 0.49887,-0.59721 0.26688,-0.73076 v -0.77815 l -0.26688,-0.73071 -0.49887,-0.59726 -0.67449,-0.38838 -0.76586,-0.13543 -0.76765,0.13543 -0.67274,0.38838 -0.50062,0.59726 -0.26689,0.73071 v 0.77815 l 0.26689,0.73076 0.50062,0.59721 0.67274,0.38838 0.76765,0.13543 m -54.27439,-54.274386 0.76586,-0.13543 0.67454,-0.38838 0.50061,-0.59552 0.26539,-0.73245 v -0.77815 l -0.26539,-0.73076 -0.50061,-0.59546 -0.67454,-0.38988 -0.76586,-0.13543 -0.76586,0.13543 -0.67453,0.38988 -0.50062,0.59546 -0.26539,0.73076 v 0.77815 l 0.26539,0.73245 0.50062,0.59552 0.67453,0.38838 0.76586,0.13543 m 166.45574,-89.72535 H 24.917368 m 288.795262,89.62701 v -79.66902 m -19.91597,79.66902 h 19.91597 M 293.79666,109.2901 V 59.498474 m 19.91597,49.791626 h -19.91597 m 19.91597,79.66728 V 109.2901 M 24.917368,198.91711 H 303.75465 M 14.959378,109.2901 v 79.66728 M 34.875358,109.2901 H 14.959378 M 34.875358,59.498474 V 109.2901 M 14.959378,59.498474 h 19.91598 m -19.91598,-79.66902 v 79.66902"
       style="fill:none;stroke:#ff0000;stroke-width:0.1;stroke-linecap:round;stroke-linejoin:round;stroke-miterlimit:10;stroke-dasharray:none;stroke-opacity:1"
       id="path1534" />
  </g>
</svg>
